<?xml version="1.0" encoding="UTF-8"?>
<!DOCTYPE svg PUBLIC "-//W3C//DTD SVG 1.0//EN" "http://www.w3.org/TR/2001/REC-SVG-20010904/DTD/svg10.dtd">
<!-- Creator: CorelDRAW -->
<svg xmlns="http://www.w3.org/2000/svg" xml:space="preserve" width="279.614mm" height="279.614mm" version="1.0" style="shape-rendering:geometricPrecision; text-rendering:geometricPrecision; image-rendering:optimizeQuality; fill-rule:evenodd; clip-rule:evenodd"
viewBox="0 0 27953.58 27953.58"
 xmlns:xlink="http://www.w3.org/1999/xlink"
 xmlns:xodm="http://www.corel.com/coreldraw/odm/2003">
 <defs>
  <style type="text/css">
   <![CDATA[
    .fil1 {fill:black}
    .fil0 {fill:white}
   ]]>
  </style>
 </defs>
 <g id="Camada_x0020_1">
  <metadata id="CorelCorpID_0Corel-Layer"/>
  <circle class="fil0" cx="13976.79" cy="13976.79" r="13976.79"/>
  <path class="fil1" d="M5842.66 22110.98l3112.61 -1033.21c262.74,-107.6 523.95,-187.68 777.4,-272.16 772.8,-257.62 453.79,-146.59 1508.41,262.7l3662.21 1585.65c543.61,270.64 338.44,-153.78 721.38,1377.77l398.86 1700.28c-444.6,235.25 -663.53,308.88 -1227.93,451.37 -1083.23,273.48 -1428.76,171.51 -2203.88,315.1 -403.64,74.77 -1047.54,41.6 -1480.47,-52.48 -1157.45,-251.53 -3628.85,-1222.48 -4651.83,-2117.91 -169.84,-148.68 -331.71,-259.78 -511.79,-380.36l-50.63 -1366.3c-3.22,-258.17 -47.86,-236.01 -54.32,-470.46zm7588.59 -21568.74l1123.71 0c1305.33,56.71 2614.41,311.26 3955.39,766.85l1152.51 474.34c205.06,101.23 368.85,186.37 558.99,280.66l1028.83 598c163.91,99.82 316.47,201.53 472.32,314.87l716.68 542.81c534.76,489.02 965.35,772.63 1445.54,1388.31 134.2,172.07 245.6,236.42 398.28,441.38 907.36,1217.96 1197.75,1494.65 1904.14,2976.37 1501.79,3150.11 1581.46,6874.45 456.9,10184.45 -598.38,1761.29 -1590.99,3191.17 -2762.52,4584.49l-1277.95 1188.55c-106.08,78.52 -126.97,125.12 -220.52,199.31 -849.88,674.02 -1753.11,1226.95 -2755.75,1704.94 -1924.01,917.25 -3846.17,1223.76 -6018.3,1223.76 -2873.72,0 -6453.02,-1349.27 -8513.67,-3346.52 -112.56,-109.1 -128.61,-91.74 -236.97,-182.86l-1387.86 -1498.47c-852.22,-1074.57 -1734.32,-2588.89 -2174.59,-3912.93 -617.52,-1857.04 -754.11,-2819.33 -754.11,-4861.11 0,-1112.86 260.9,-2591.97 569.86,-3575.96 288.75,-919.6 535.9,-1462.61 951.99,-2301.68l1626.83 -2414.02c129.89,-178.68 240.46,-251.13 388.09,-451.57 169.14,-229.63 1030.44,-1017.26 1270.44,-1196.05l922.28 -704.56c807.94,-611.52 2246.14,-1348.3 3211.28,-1669.23 1339.01,-445.25 2645.75,-697.66 3948.16,-754.11zm3431.94 24927.37c-17.24,-207.12 -107.78,-483.78 -157.44,-682.22 -59.6,-238.19 -103.82,-471.22 -167.78,-724.37 -114.89,-454.79 -247.17,-955.83 -357.01,-1427.26l1771.18 -1902.34c265.39,-265.21 703.38,-649.65 915.34,-921.41 328.75,-421.5 723.87,-718.53 882.03,-954.72l4723.08 -419.83 94.34 850.27c20.21,128.34 1.64,233.79 10,357.36 14.44,213.73 30.14,91.15 49.86,265.01l55.71 993.86c0,192.28 -931.29,1343.13 -1115.36,1561.05 -495.75,586.91 -563.88,563.12 -970.69,971.03 -1278.77,1282.21 -2614.21,1546.34 -4337.69,1854.8 -447.4,80.07 -915.68,178.77 -1395.59,178.77zm-11387.88 -4145.81c-9.36,-8.14 -23.93,-33.3 -28.1,-24.37l-1536.18 -1455.1c-56.52,-71.87 -95.57,-91.95 -154.1,-160.78l-518.12 -636.4c-539.52,-729.47 -476.09,-578.14 -671.95,-1584.63 -281.04,-1444.2 -263.38,-3619.85 198.85,-4988.31 71.75,-212.42 183.76,-684.6 283.46,-818.59 164.56,-221.15 986.73,-686.29 1271.57,-827.58 231.43,-114.79 459.84,-221.05 717.56,-332.02 265.01,-114.11 565.7,-183.18 804.36,-297.7 279.73,417.73 922.18,850.38 1238.78,1280.2l1870.55 1960.38c1896.07,1892.3 1255.87,938.93 1192.27,2950.27 -21.19,670.33 -255.03,2347.9 -261.54,2887.19 -8.62,713.41 -95.3,601.39 -556.79,755.17 -667.66,222.48 -1260.98,420.28 -1928.61,642.84l-1922.03 649.44zm14326.68 -3358.64l-1889.91 -3305.48c-812.64,-1401.56 -691.15,-872.05 -360.16,-1883.39l869.26 -2384.42c106.59,-260.31 198.88,-500.33 285.28,-764.31l885.62 -2368.05 2046.27 157.84c320.29,-2.56 441.11,46.19 680.58,54.11 880.68,29.16 398.08,37.02 999.13,470.27 296.85,213.98 458.04,486.97 721.92,747.49 91.42,90.26 100.89,101.67 170.25,197.09l482.91 619.15c110.01,166.97 200.03,280.68 305.13,429.57l542.49 926.92c92.04,187.31 130.59,320.61 226.24,508.46 141.49,277.89 371.65,794.82 312.31,1115.98 -82.52,446.68 -115.23,837.04 -202.03,1268.25 -156,774.89 -333.05,1568.78 -633.87,2304.93 -101.1,247.4 -552.6,1353.03 -740.46,1463.64 -113.06,66.57 -1724.11,181.25 -1982.7,221.4l-2350.13 221.33c-107.31,7.85 -256.14,-0.77 -368.13,-0.77zm-18315.06 -2466.5l63.02 733.64c-44.29,-37.77 -44.29,-16.8 -79.86,-87.06 -329.73,-651.27 -182.84,-1121.12 -256.16,-1580.61 -209.13,-1310.72 323.4,-4180.4 902.56,-5416.09 50.73,-108.24 105.14,-150.67 105.14,-314.69l52.48 0c0,575.4 -43.75,1338.11 -0.62,1890.16 46.59,596.29 118.09,75.99 -111.74,726.38 -83.23,235.51 -143.84,441.34 -223.36,721.26 -261.29,919.7 -364.24,1504.32 -396.92,2436.93 -9.4,268.18 -90.29,534.1 -54.54,890.07zm24664.99 -5352.83l52.48 0 -43.73 61.22 -8.75 -61.22zm-9656.08 3043.76l-4796.27 923.91c-805.87,148.99 -655.41,280.52 -1305.33,-437.53l-1685.96 -1777.64c-138.9,-188.6 -396.29,-411.5 -569.65,-584.88 -205.22,-205.21 -372.06,-372.06 -577.27,-577.27 -357.03,-357.03 -842.53,-967.48 -1141.43,-1167.63 267.73,-1149.25 285.07,-1357.16 857.29,-2501.34 827.93,-1655.48 1053.25,-1724.92 2606.53,-2431.44 1552.15,-706.01 3041.98,-944.83 4827.81,-944.83 380.04,0 525.58,52.48 892.14,52.48 283.87,423.92 3148.71,3078.1 3148.71,3201.2l-702.55 1921.38c-181.28,534.71 -1536.11,4108.27 -1554.02,4323.58zm5457.78 -9183.77c764.32,404.42 1945.87,1917.31 2504.79,2638.13 291.38,375.76 490.33,774.29 728.19,1161.04l643.67 1350.52c91.67,233.6 316.35,752.13 321.66,990.31l-745.04 -1144.2c-487.28,-736.61 -1200.33,-1458.61 -1865.6,-2017.82 -571.09,-480.06 -325.02,-950.93 -821.08,-1750.38 -263.27,-424.28 -320.5,-578.1 -630.29,-996.55 -105.21,-142.12 -87.19,-47.16 -136.29,-231.06zm0 0l-52.48 -52.49 52.48 52.49zm-52.48 -52.49l-52.48 -52.48 52.48 52.48zm-52.48 -52.48l-52.49 0 43.74 -61.22 8.75 61.22zm-6349.93 -1049.57c-1584.68,0 -1293.12,-229.19 -3520.04,205.95 -1204.37,235.33 -2203.26,634.25 -3284.56,1176.13 -510.14,255.65 -404.76,159.48 -1388.67,-168.48l-709.82 -234.79c-236.14,-77.35 -109.84,22.4 -228.21,-139.14 166.8,-44.55 188.86,-115.46 345.9,-231.36 2059.72,-1520.12 5083.9,-2383.47 7632.93,-2289.69l1306.59 110.33c488.26,52.47 1410.33,306.67 1630.14,311.57 -138.89,189.56 -5.79,38.91 -226.37,140.99 -113.38,52.48 -115.31,68.84 -224.74,142.61 -106.56,71.85 -138.68,80.09 -230.72,136.63 -87.34,53.65 -137.57,101.37 -241.46,178.37l-611.91 490.15c-74.43,64.01 -172.5,119.45 -249.09,170.73z"/>
 </g>
</svg>
